<?xml version="1.0" encoding="UTF-8" standalone="no"?>
<!-- Created with Inkscape (http://www.inkscape.org/) -->

<svg
   width="512"
   height="512"
   viewBox="0 0 135.46666 135.46667"
   version="1.1"
   id="svg1"
   inkscape:version="1.4.4 (dcaf3e7d9e, 2026-05-05)"
   sodipodi:docname="logo.svg"
   inkscape:export-filename="logo.png"
   inkscape:export-xdpi="96"
   inkscape:export-ydpi="96"
   xmlns:inkscape="http://www.inkscape.org/namespaces/inkscape"
   xmlns:sodipodi="http://sodipodi.sourceforge.net/DTD/sodipodi-0.dtd"
   xmlns:xlink="http://www.w3.org/1999/xlink"
   xmlns="http://www.w3.org/2000/svg"
   xmlns:svg="http://www.w3.org/2000/svg">
  <sodipodi:namedview
     id="namedview1"
     pagecolor="#505050"
     bordercolor="#eeeeee"
     borderopacity="1"
     inkscape:showpageshadow="0"
     inkscape:pageopacity="0"
     inkscape:pagecheckerboard="0"
     inkscape:deskcolor="#505050"
     inkscape:document-units="px"
     inkscape:zoom="0.26977545"
     inkscape:cx="856.26768"
     inkscape:cy="166.80539"
     inkscape:window-width="2214"
     inkscape:window-height="1398"
     inkscape:window-x="0"
     inkscape:window-y="0"
     inkscape:window-maximized="1"
     inkscape:current-layer="layer1" />
  <defs
     id="defs1">
    <color-profile
       name="D55"
       xlink:href="file:///usr/share/color/icc/colord/Gamma5500K.icc"
       id="color-profile2" />
  </defs>
  <g
     inkscape:label="Layer 1"
     inkscape:groupmode="layer"
     id="layer1">
    <rect
       style="fill:#181825;stroke-width:0.264583"
       id="rect1"
       width="135.46666"
       height="135.46666"
       x="0"
       y="0" />
    <path
       d="M 16.095656,89.94989 V 57.634901 h 8.078748 v 4.159952 h 0.180867 q 1.567518,-2.290988 4.159952,-3.466627 2.622579,-1.175639 5.667181,-1.175639 3.466627,0 5.848049,1.597663 2.411566,1.567518 3.647494,4.220241 1.235927,2.652723 1.235927,5.938483 V 89.94989 H 36.59397 V 70.717648 q 0,-3.22547 -1.597662,-4.853277 -1.567518,-1.657952 -4.250386,-1.657952 -2.682868,0 -4.521687,1.688097 -1.808675,1.688096 -1.808675,4.883421 V 89.94989 Z m 50.853905,0.482313 q -4.491542,0 -8.108892,-1.718241 -3.617349,-1.718241 -5.72747,-4.672409 -2.11012,-2.954169 -2.11012,-6.631808 0,-3.436482 1.868964,-6.239928 1.899108,-2.833591 5.064289,-4.551832 -2.17041,-1.718241 -3.436482,-4.190096 -1.266072,-2.471856 -1.266072,-5.39588 0,-3.376193 1.808674,-6.089205 1.83882,-2.713012 4.943711,-4.310675 3.104892,-1.597663 6.963398,-1.597663 3.888651,0 6.993543,1.597663 3.104892,1.597663 4.913566,4.310675 1.83882,2.713012 1.83882,6.11935 0,2.924024 -1.266073,5.395879 -1.266072,2.441711 -3.466626,4.159952 3.165181,1.718241 5.034145,4.551832 1.899108,2.803446 1.899108,6.239928 0,3.677639 -2.110121,6.631808 -2.11012,2.954168 -5.72747,4.672409 -3.587205,1.718241 -8.108892,1.718241 z m 0.03014,-26.738242 q 2.622578,0 4.401109,-1.748385 1.808674,-1.748386 1.808674,-4.280531 0,-2.411566 -1.808674,-4.039373 -1.808675,-1.657952 -4.461398,-1.657952 -2.622579,0 -4.401109,1.657952 -1.77853,1.627807 -1.77853,4.039373 0,2.532145 1.77853,4.280531 1.808675,1.748385 4.461398,1.748385 z m -0.03014,19.684411 q 3.22547,0 5.39588,-1.83882 2.200554,-1.838819 2.200554,-4.521687 0,-2.803445 -2.170409,-4.672409 -2.17041,-1.899109 -5.365735,-1.899109 -3.22547,0 -5.426025,1.899109 -2.200554,1.899108 -2.200554,4.702554 0,2.682868 2.17041,4.521687 2.200554,1.808675 5.395879,1.808675 z M 98.963106,89.94989 86.422961,57.665045 h 8.95294 l 5.034149,15.283302 2.38142,8.048603 h 0.24115 l 2.35128,-8.048603 5.09444,-15.283302 h 8.89265 L 106.83084,89.94989 Z"
       id="text1"
       style="font-weight:bold;font-size:61.7361px;font-family:'Reddit Sans Fudge';-inkscape-font-specification:'Reddit Sans Fudge, Bold';letter-spacing:0px;word-spacing:0px;text-orientation:upright;fill:#fab387;stroke-width:0.264583"
       aria-label="n8v" />
    <path
       sodipodi:type="spiral"
       style="opacity:0.05;fill:none;fill-rule:evenodd;stroke:#fab387;stroke-width:6.66927;stroke-linecap:round;stroke-linejoin:bevel;stroke-dasharray:none;stroke-dashoffset:0"
       id="path3"
       sodipodi:cx="47.764835"
       sodipodi:cy="39.740341"
       sodipodi:expansion="1"
       sodipodi:revolution="3"
       sodipodi:radius="81.906319"
       sodipodi:argument="-18.093851"
       sodipodi:t0="0"
       d="m 47.764835,39.740341 c 2.988774,2.81635 -2.321827,5.418295 -4.680958,4.967539 C 36.690778,43.486358 35.428151,35.38157 37.829758,30.378424 42.12567,21.42897 53.930383,20.044867 61.807711,24.837725 73.368006,31.871438 74.895199,47.803385 67.63499,58.464175 57.958274,72.673332 37.772248,74.337822 24.360043,64.578035 7.4821516,52.296339 5.6836068,27.802974 17.959603,11.65459 32.82748,-7.9032652 61.655558,-9.8342582 80.531545,4.9675703 102.77624,22.411013 104.83885,55.589763 87.505145,77.188009 67.492701,102.12404 29.953146,104.31779 5.6362093,84.44819 -21.99424,61.871083 -24.318876,19.963879 -1.9105517,-7.0692433 23.228202,-37.396322 69.507898,-39.851677 99.255378,-14.902585 132.28072,12.795637 134.86669,63.451381 107.3753,95.911843"
       transform="matrix(0.9029723,0,0,0.99322461,18.505608,35.001563)" />
  </g>
</svg>
